Dead Poets Society*1989*[DVD9][PAL][ENG, POL, RUS]

General information:
Country: USA
Release: 2 June 1989
Genre: Drama
Director: Peter Weir
Screenplay: Tom Schulman
Original Music: Maurice Jarre
Cinematography by: John Seale
Duration: 2h 02mn
Language: 
Subtitles: 
Rating: 8.0/10 - 36348 votes 

Cast:
Robin Williams  ...  John Keating  
Robert Sean Leonard  ...  Neil Perry  
Ethan Hawke  ...  Todd Anderson  
Josh Charles  ...  Knox Overstreet  
Gale Hansen  ...  Charlie Dalton  
Dylan Kussman  ...  Richard Cameron  
Allelon Ruggiero  ...  Steven Meeks  
James Waterston  ...  Gerard Pitts  
Norman Lloyd  ...  Mr. Nolan  
Kurtwood Smith  ...  Mr. Perry  
Carla Belver  ...  Mrs. Perry  
Leon Pownall  ...  McAllister  
George Martin  ...  Dr. Hager  
Joe Aufiery  ...  Chemistry Teacher  
Matt Carey  ...  Hopkins  

Plot:
English professor John Keating inspires his students to a love of poetry and to seize the day.

Specifications:
General
Format                           : MPEG-PS
Overall bit rate                 : 5 962 Kbps

Video
Format                           : MPEG Video
Format version                   : Version 2
Format profile                   : Main@Main
Format settings, BVOP            : Yes
Format settings, Matrix          : Default
Bit rate mode                    : Variable
Bit rate                         : 4 980 Kbps
Width                            : 720 pixels
Height                           : 576 pixels
Display aspect ratio             : 16:9
Frame rate                       : 25.000 fps
Standard                         : PAL
ream size                      : 855 MiB (84%)

Audio 1
Format                           : AC-3
Format/Info                      : Audio Coding 3
Mode extension                   : CM (complete main)
Bit rate mode                    : Constant
Bit rate                         : 384 Kbps
Channel(s)                       : 6 channels
Channel positions                : Front: L C R, Side: L R, LFE
Sampling rate                    : 48.0 KHz
Video delay                      : 53ms
Stream size                      : 65.9 MiB (6%)

Audio 2-3
Format                           : AC-3
Format/Info                      : Audio Coding 3
Mode extension                   : CM (complete main)
Bit rate mode                    : Constant
Bit rate                         : 192 Kbps
Channel(s)                       : 2 channels
Channel positions                : Front: L R
Sampling rate                    : 48.0 KHz
Video delay                      : 53ms
Stream size                      : 33.0 MiB (3%)

Text 
Format                           : RLE
Format/Info                      : Run-length encoding
